<svg xmlns="http://www.w3.org/2000/svg" xmlns:xlink="http://www.w3.org/1999/xlink" version="1.1" class="marks" width="272" height="250" viewBox="0 0 272 250"><rect width="272" height="250" fill="white"/><g fill="none" stroke-miterlimit="10" transform="translate(48,19)"><g class="mark-group role-frame root" role="graphics-object" aria-roledescription="group mark container"><g transform="translate(0,0)"><path class="background" aria-hidden="true" d="M0.5,0.5h200v200h-200Z" stroke="black" stroke-width="1"/><g><g class="mark-group role-axis" role="graphics-symbol" aria-roledescription="axis" aria-label="X-axis titled 'Latency' for a linear scale with values from 0 to 1,600"><g transform="translate(0.5,200.5)"><path class="background" aria-hidden="true" d="M0,0h0v0h0Z" pointer-events="none"/><g><g class="mark-rule role-axis-tick" pointer-events="none"><line transform="translate(0,0)" x2="0" y2="3" stroke="black" stroke-width="1" opacity="1"/><line transform="translate(63,0)" x2="0" y2="3" stroke="black" stroke-width="1" opacity="1"/><line transform="translate(125,0)" x2="0" y2="3" stroke="black" stroke-width="1" opacity="1"/><line transform="translate(188,0)" x2="0" y2="3" stroke="black" stroke-width="1" opacity="1"/></g><g class="mark-text role-axis-label" pointer-events="none"><text text-anchor="start" transform="translate(0,13)" font-family="sans-serif" font-size="10px" fill="#000" opacity="1">0</text><text text-anchor="middle" transform="translate(62.5,13)" font-family="sans-serif" font-size="10px" fill="#000" opacity="1">500</text><text text-anchor="middle" transform="translate(125,13)" font-family="sans-serif" font-size="10px" fill="#000" opacity="1">1,000</text><text text-anchor="middle" transform="translate(187.5,13)" font-family="sans-serif" font-size="10px" fill="#000" opacity="1">1,500</text></g><g class="mark-rule role-axis-domain" pointer-events="none"><line transform="translate(0,0)" x2="200" y2="0" stroke="black" stroke-width="1" opacity="1"/></g><g class="mark-text role-axis-title" pointer-events="none"><text text-anchor="middle" transform="translate(100,27)" font-family="sans-serif" font-size="10px" font-weight="bold" fill="#000" opacity="1">Latency</text></g></g><path class="foreground" aria-hidden="true" d="" pointer-events="none" display="none"/></g></g><g class="mark-group role-axis" role="graphics-symbol" aria-roledescription="axis" aria-label="Y-axis titled 'Bandwidth' for a linear scale with values from 0 to 90,000"><g transform="translate(0.5,0.5)"><path class="background" aria-hidden="true" d="M0,0h0v0h0Z" pointer-events="none"/><g><g class="mark-rule role-axis-tick" pointer-events="none"><line transform="translate(0,200)" x2="-3" y2="0" stroke="black" stroke-width="1" opacity="1"/><line transform="translate(0,156)" x2="-3" y2="0" stroke="black" stroke-width="1" opacity="1"/><line transform="translate(0,111)" x2="-3" y2="0" stroke="black" stroke-width="1" opacity="1"/><line transform="translate(0,67)" x2="-3" y2="0" stroke="black" stroke-width="1" opacity="1"/><line transform="translate(0,22)" x2="-3" y2="0" stroke="black" stroke-width="1" opacity="1"/></g><g class="mark-text role-axis-label" pointer-events="none"><text text-anchor="end" transform="translate(-5,203)" font-family="sans-serif" font-size="10px" fill="#000" opacity="1">0</text><text text-anchor="end" transform="translate(-5,158.55555555555557)" font-family="sans-serif" font-size="10px" fill="#000" opacity="1">20,000</text><text text-anchor="end" transform="translate(-5,114.11111111111111)" font-family="sans-serif" font-size="10px" fill="#000" opacity="1">40,000</text><text text-anchor="end" transform="translate(-5,69.66666666666667)" font-family="sans-serif" font-size="10px" fill="#000" opacity="1">60,000</text><text text-anchor="end" transform="translate(-5,25.222222222222232)" font-family="sans-serif" font-size="10px" fill="#000" opacity="1">80,000</text></g><g class="mark-rule role-axis-domain" pointer-events="none"><line transform="translate(0,200)" x2="0" y2="-200" stroke="black" stroke-width="1" opacity="1"/></g><g class="mark-text role-axis-title" pointer-events="none"><text text-anchor="middle" transform="translate(-35.5859375,100) rotate(-90) translate(0,-2)" font-family="sans-serif" font-size="10px" font-weight="bold" fill="#000" opacity="1">Bandwidth</text></g></g><path class="foreground" aria-hidden="true" d="" pointer-events="none" display="none"/></g></g><g class="mark-symbol role-mark layer_0_marks" role="graphics-object" aria-roledescription="symbol mark container"><path aria-label="Latency: 310.29; Bandwidth: 88697.1; Kind: L-DRAM" role="graphics-symbol" aria-roledescription="point" transform="translate(38.78625,2.8953333333333164)" d="M2.739,0A2.739,2.739,0,1,1,-2.739,0A2.739,2.739,0,1,1,2.739,0" stroke="#4c78a8" stroke-width="2" opacity="0.75"/><path aria-label="Latency: 302.72; Bandwidth: 88822.3; Kind: L-DRAM" role="graphics-symbol" aria-roledescription="point" transform="translate(37.84,2.6171111111111145)" d="M2.739,0A2.739,2.739,0,1,1,-2.739,0A2.739,2.739,0,1,1,2.739,0" stroke="#4c78a8" stroke-width="2" opacity="0.75"/><path aria-label="Latency: 300.34; Bandwidth: 88652.9; Kind: L-DRAM" role="graphics-symbol" aria-roledescription="point" transform="translate(37.5425,2.9935555555555604)" d="M2.739,0A2.739,2.739,0,1,1,-2.739,0A2.739,2.739,0,1,1,2.739,0" stroke="#4c78a8" stroke-width="2" opacity="0.75"/><path aria-label="Latency: 297.68; Bandwidth: 88309.6; Kind: L-DRAM" role="graphics-symbol" aria-roledescription="point" transform="translate(37.21,3.756444444444429)" d="M2.739,0A2.739,2.739,0,1,1,-2.739,0A2.739,2.739,0,1,1,2.739,0" stroke="#4c78a8" stroke-width="2" opacity="0.75"/><path aria-label="Latency: 173.98; Bandwidth: 84752.8; Kind: L-DRAM" role="graphics-symbol" aria-roledescription="point" transform="translate(21.7475,11.66044444444443)" d="M2.739,0A2.739,2.739,0,1,1,-2.739,0A2.739,2.739,0,1,1,2.739,0" stroke="#4c78a8" stroke-width="2" opacity="0.75"/><path aria-label="Latency: 156.82; Bandwidth: 81667.3; Kind: L-DRAM" role="graphics-symbol" aria-roledescription="point" transform="translate(19.6025,18.517111111111095)" d="M2.739,0A2.739,2.739,0,1,1,-2.739,0A2.739,2.739,0,1,1,2.739,0" stroke="#4c78a8" stroke-width="2" opacity="0.75"/><path aria-label="Latency: 127.06; Bandwidth: 70076; Kind: L-DRAM" role="graphics-symbol" aria-roledescription="point" transform="translate(15.8825,44.275555555555556)" d="M2.739,0A2.739,2.739,0,1,1,-2.739,0A2.739,2.739,0,1,1,2.739,0" stroke="#4c78a8" stroke-width="2" opacity="0.75"/><path aria-label="Latency: 114.83; Bandwidth: 58507.3; Kind: L-DRAM" role="graphics-symbol" aria-roledescription="point" transform="translate(14.353749999999998,69.98377777777777)" d="M2.739,0A2.739,2.739,0,1,1,-2.739,0A2.739,2.739,0,1,1,2.739,0" stroke="#4c78a8" stroke-width="2" opacity="0.75"/><path aria-label="Latency: 108.51; Bandwidth: 48931.8; Kind: L-DRAM" role="graphics-symbol" aria-roledescription="point" transform="translate(13.563749999999999,91.26266666666668)" d="M2.739,0A2.739,2.739,0,1,1,-2.739,0A2.739,2.739,0,1,1,2.739,0" stroke="#4c78a8" stroke-width="2" opacity="0.75"/><path aria-label="Latency: 104.25; Bandwidth: 41922; Kind: L-DRAM" role="graphics-symbol" aria-roledescription="point" transform="translate(13.03125,106.84)" d="M2.739,0A2.739,2.739,0,1,1,-2.739,0A2.739,2.739,0,1,1,2.739,0" stroke="#4c78a8" stroke-width="2" opacity="0.75"/><path aria-label="Latency: 97.29; Bandwidth: 33066.3; Kind: L-DRAM" role="graphics-symbol" aria-roledescription="point" transform="translate(12.16125,126.51933333333334)" d="M2.739,0A2.739,2.739,0,1,1,-2.739,0A2.739,2.739,0,1,1,2.739,0" stroke="#4c78a8" stroke-width="2" opacity="0.75"/><path aria-label="Latency: 94.44; Bandwidth: 24566.7; Kind: L-DRAM" role="graphics-symbol" aria-roledescription="point" transform="translate(11.805,145.40733333333333)" d="M2.739,0A2.739,2.739,0,1,1,-2.739,0A2.739,2.739,0,1,1,2.739,0" stroke="#4c78a8" stroke-width="2" opacity="0.75"/><path aria-label="Latency: 91.91; Bandwidth: 19636.4; Kind: L-DRAM" role="graphics-symbol" aria-roledescription="point" transform="translate(11.48875,156.36355555555554)" d="M2.739,0A2.739,2.739,0,1,1,-2.739,0A2.739,2.739,0,1,1,2.739,0" stroke="#4c78a8" stroke-width="2" opacity="0.75"/><path aria-label="Latency: 90.61; Bandwidth: 15533.9; Kind: L-DRAM" role="graphics-symbol" aria-roledescription="point" transform="translate(11.32625,165.48022222222224)" d="M2.739,0A2.739,2.739,0,1,1,-2.739,0A2.739,2.739,0,1,1,2.739,0" stroke="#4c78a8" stroke-width="2" opacity="0.75"/><path aria-label="Latency: 90.8; Bandwidth: 11048.2; Kind: L-DRAM" role="graphics-symbol" aria-roledescription="point" transform="translate(11.35,175.44844444444445)" d="M2.739,0A2.739,2.739,0,1,1,-2.739,0A2.739,2.739,0,1,1,2.739,0" stroke="#4c78a8" stroke-width="2" opacity="0.75"/><path aria-label="Latency: 89.87; Bandwidth: 8193.7; Kind: L-DRAM" role="graphics-symbol" aria-roledescription="point" transform="translate(11.23375,181.79177777777778)" d="M2.739,0A2.739,2.739,0,1,1,-2.739,0A2.739,2.739,0,1,1,2.739,0" stroke="#4c78a8" stroke-width="2" opacity="0.75"/><path aria-label="Latency: 89.73; Bandwidth: 6006.2; Kind: L-DRAM" role="graphics-symbol" aria-roledescription="point" transform="translate(11.21625,186.6528888888889)" d="M2.739,0A2.739,2.739,0,1,1,-2.739,0A2.739,2.739,0,1,1,2.739,0" stroke="#4c78a8" stroke-width="2" opacity="0.75"/><path aria-label="Latency: 90.09; Bandwidth: 3682.9; Kind: L-DRAM" role="graphics-symbol" aria-roledescription="point" transform="translate(11.26125,191.81577777777778)" d="M2.739,0A2.739,2.739,0,1,1,-2.739,0A2.739,2.739,0,1,1,2.739,0" stroke="#4c78a8" stroke-width="2" opacity="0.75"/><path aria-label="Latency: 91.31; Bandwidth: 2050.7; Kind: L-DRAM" role="graphics-symbol" aria-roledescription="point" transform="translate(11.41375,195.4428888888889)" d="M2.739,0A2.739,2.739,0,1,1,-2.739,0A2.739,2.739,0,1,1,2.739,0" stroke="#4c78a8" stroke-width="2" opacity="0.75"/><path aria-label="Latency: 1285.88; Bandwidth: 21366.2; Kind: L-PMEM" role="graphics-symbol" aria-roledescription="point" transform="translate(160.735,152.51955555555554)" d="M-2.739,-2.739h5.477v5.477h-5.477Z" stroke="#f58518" stroke-width="2" opacity="0.75"/><path aria-label="Latency: 1249.33; Bandwidth: 21464; Kind: L-PMEM" role="graphics-symbol" aria-roledescription="point" transform="translate(156.16625,152.30222222222224)" d="M-2.739,-2.739h5.477v5.477h-5.477Z" stroke="#f58518" stroke-width="2" opacity="0.75"/><path aria-label="Latency: 1112.32; Bandwidth: 23577.6; Kind: L-PMEM" role="graphics-symbol" aria-roledescription="point" transform="translate(139.04,147.60533333333333)" d="M-2.739,-2.739h5.477v5.477h-5.477Z" stroke="#f58518" stroke-width="2" opacity="0.75"/><path aria-label="Latency: 667.11; Bandwidth: 24518.6; Kind: L-PMEM" role="graphics-symbol" aria-roledescription="point" transform="translate(83.38875,145.51422222222223)" d="M-2.739,-2.739h5.477v5.477h-5.477Z" stroke="#f58518" stroke-width="2" opacity="0.75"/><path aria-label="Latency: 647.29; Bandwidth: 25031.8; Kind: L-PMEM" role="graphics-symbol" aria-roledescription="point" transform="translate(80.91125,144.37377777777778)" d="M-2.739,-2.739h5.477v5.477h-5.477Z" stroke="#f58518" stroke-width="2" opacity="0.75"/><path aria-label="Latency: 565.02; Bandwidth: 27840.5; Kind: L-PMEM" role="graphics-symbol" aria-roledescription="point" transform="translate(70.6275,138.13222222222223)" d="M-2.739,-2.739h5.477v5.477h-5.477Z" stroke="#f58518" stroke-width="2" opacity="0.75"/><path aria-label="Latency: 509.48; Bandwidth: 26972.9; Kind: L-PMEM" role="graphics-symbol" aria-roledescription="point" transform="translate(63.685,140.0602222222222)" d="M-2.739,-2.739h5.477v5.477h-5.477Z" stroke="#f58518" stroke-width="2" opacity="0.75"/><path aria-label="Latency: 472; Bandwidth: 25484.7; Kind: L-PMEM" role="graphics-symbol" aria-roledescription="point" transform="translate(59,143.36733333333333)" d="M-2.739,-2.739h5.477v5.477h-5.477Z" stroke="#f58518" stroke-width="2" opacity="0.75"/><path aria-label="Latency: 448.48; Bandwidth: 23768.1; Kind: L-PMEM" role="graphics-symbol" aria-roledescription="point" transform="translate(56.06,147.18200000000002)" d="M-2.739,-2.739h5.477v5.477h-5.477Z" stroke="#f58518" stroke-width="2" opacity="0.75"/><path aria-label="Latency: 426.51; Bandwidth: 20465.7; Kind: L-PMEM" role="graphics-symbol" aria-roledescription="point" transform="translate(53.313750000000006,154.52066666666667)" d="M-2.739,-2.739h5.477v5.477h-5.477Z" stroke="#f58518" stroke-width="2" opacity="0.75"/><path aria-label="Latency: 402.1; Bandwidth: 16931.7; Kind: L-PMEM" role="graphics-symbol" aria-roledescription="point" transform="translate(50.262499999999996,162.374)" d="M-2.739,-2.739h5.477v5.477h-5.477Z" stroke="#f58518" stroke-width="2" opacity="0.75"/><path aria-label="Latency: 382.34; Bandwidth: 14548.4; Kind: L-PMEM" role="graphics-symbol" aria-roledescription="point" transform="translate(47.7925,167.6702222222222)" d="M-2.739,-2.739h5.477v5.477h-5.477Z" stroke="#f58518" stroke-width="2" opacity="0.75"/><path aria-label="Latency: 368.33; Bandwidth: 12143.7; Kind: L-PMEM" role="graphics-symbol" aria-roledescription="point" transform="translate(46.04125,173.014)" d="M-2.739,-2.739h5.477v5.477h-5.477Z" stroke="#f58518" stroke-width="2" opacity="0.75"/><path aria-label="Latency: 356.65; Bandwidth: 9075.6; Kind: L-PMEM" role="graphics-symbol" aria-roledescription="point" transform="translate(44.58125,179.832)" d="M-2.739,-2.739h5.477v5.477h-5.477Z" stroke="#f58518" stroke-width="2" opacity="0.75"/><path aria-label="Latency: 350.63; Bandwidth: 6903.7; Kind: L-PMEM" role="graphics-symbol" aria-roledescription="point" transform="translate(43.82875,184.65844444444443)" d="M-2.739,-2.739h5.477v5.477h-5.477Z" stroke="#f58518" stroke-width="2" opacity="0.75"/><path aria-label="Latency: 345.94; Bandwidth: 5090.5; Kind: L-PMEM" role="graphics-symbol" aria-roledescription="point" transform="translate(43.2425,188.6877777777778)" d="M-2.739,-2.739h5.477v5.477h-5.477Z" stroke="#f58518" stroke-width="2" opacity="0.75"/><path aria-label="Latency: 342.83; Bandwidth: 3032.5; Kind: L-PMEM" role="graphics-symbol" aria-roledescription="point" transform="translate(42.85375,193.26111111111112)" d="M-2.739,-2.739h5.477v5.477h-5.477Z" stroke="#f58518" stroke-width="2" opacity="0.75"/><path aria-label="Latency: 343.29; Bandwidth: 1509.3; Kind: L-PMEM" role="graphics-symbol" aria-roledescription="point" transform="translate(42.91125,196.64600000000002)" d="M-2.739,-2.739h5.477v5.477h-5.477Z" stroke="#f58518" stroke-width="2" opacity="0.75"/><path aria-label="Latency: 399.57; Bandwidth: 1501.5; Kind: L-PMEM" role="graphics-symbol" aria-roledescription="point" transform="translate(49.94625,196.66333333333333)" d="M-2.739,-2.739h5.477v5.477h-5.477Z" stroke="#f58518" stroke-width="2" opacity="0.75"/><path aria-label="Latency: 595.55; Bandwidth: 45967.1; Kind: R-DRAM" role="graphics-symbol" aria-roledescription="point" transform="translate(74.44375,97.85088888888889)" d="M0,-2.372L-2.739,2.372L2.739,2.372Z" stroke="#e45756" stroke-width="2" opacity="0.75"/><path aria-label="Latency: 550.26; Bandwidth: 55622; Kind: R-DRAM" role="graphics-symbol" aria-roledescription="point" transform="translate(68.7825,76.39555555555555)" d="M0,-2.372L-2.739,2.372L2.739,2.372Z" stroke="#e45756" stroke-width="2" opacity="0.75"/><path aria-label="Latency: 465.05; Bandwidth: 55670.5; Kind: R-DRAM" role="graphics-symbol" aria-roledescription="point" transform="translate(58.13125,76.28777777777778)" d="M0,-2.372L-2.739,2.372L2.739,2.372Z" stroke="#e45756" stroke-width="2" opacity="0.75"/><path aria-label="Latency: 449.91; Bandwidth: 55666.3; Kind: R-DRAM" role="graphics-symbol" aria-roledescription="point" transform="translate(56.23875,76.29711111111111)" d="M0,-2.372L-2.739,2.372L2.739,2.372Z" stroke="#e45756" stroke-width="2" opacity="0.75"/><path aria-label="Latency: 274.67; Bandwidth: 55585.4; Kind: R-DRAM" role="graphics-symbol" aria-roledescription="point" transform="translate(34.33375,76.47688888888888)" d="M0,-2.372L-2.739,2.372L2.739,2.372Z" stroke="#e45756" stroke-width="2" opacity="0.75"/><path aria-label="Latency: 250.16; Bandwidth: 55384; Kind: R-DRAM" role="graphics-symbol" aria-roledescription="point" transform="translate(31.269999999999996,76.92444444444445)" d="M0,-2.372L-2.739,2.372L2.739,2.372Z" stroke="#e45756" stroke-width="2" opacity="0.75"/><path aria-label="Latency: 198.98; Bandwidth: 52347.4; Kind: R-DRAM" role="graphics-symbol" aria-roledescription="point" transform="translate(24.8725,83.67244444444444)" d="M0,-2.372L-2.739,2.372L2.739,2.372Z" stroke="#e45756" stroke-width="2" opacity="0.75"/><path aria-label="Latency: 179.96; Bandwidth: 46655.4; Kind: R-DRAM" role="graphics-symbol" aria-roledescription="point" transform="translate(22.495,96.32133333333333)" d="M0,-2.372L-2.739,2.372L2.739,2.372Z" stroke="#e45756" stroke-width="2" opacity="0.75"/><path aria-label="Latency: 170.85; Bandwidth: 40604.8; Kind: R-DRAM" role="graphics-symbol" aria-roledescription="point" transform="translate(21.35625,109.7671111111111)" d="M0,-2.372L-2.739,2.372L2.739,2.372Z" stroke="#e45756" stroke-width="2" opacity="0.75"/><path aria-label="Latency: 164.9; Bandwidth: 35966.3; Kind: R-DRAM" role="graphics-symbol" aria-roledescription="point" transform="translate(20.6125,120.07488888888889)" d="M0,-2.372L-2.739,2.372L2.739,2.372Z" stroke="#e45756" stroke-width="2" opacity="0.75"/><path aria-label="Latency: 156.35; Bandwidth: 29248.3; Kind: R-DRAM" role="graphics-symbol" aria-roledescription="point" transform="translate(19.54375,135.00377777777777)" d="M0,-2.372L-2.739,2.372L2.739,2.372Z" stroke="#e45756" stroke-width="2" opacity="0.75"/><path aria-label="Latency: 149.63; Bandwidth: 22643.8; Kind: R-DRAM" role="graphics-symbol" aria-roledescription="point" transform="translate(18.70375,149.68044444444445)" d="M0,-2.372L-2.739,2.372L2.739,2.372Z" stroke="#e45756" stroke-width="2" opacity="0.75"/><path aria-label="Latency: 147.95; Bandwidth: 18111.1; Kind: R-DRAM" role="graphics-symbol" aria-roledescription="point" transform="translate(18.49375,159.7531111111111)" d="M0,-2.372L-2.739,2.372L2.739,2.372Z" stroke="#e45756" stroke-width="2" opacity="0.75"/><path aria-label="Latency: 145.31; Bandwidth: 14514.9; Kind: R-DRAM" role="graphics-symbol" aria-roledescription="point" transform="translate(18.16375,167.7446666666667)" d="M0,-2.372L-2.739,2.372L2.739,2.372Z" stroke="#e45756" stroke-width="2" opacity="0.75"/><path aria-label="Latency: 143.3; Bandwidth: 10427.7; Kind: R-DRAM" role="graphics-symbol" aria-roledescription="point" transform="translate(17.9125,176.82733333333334)" d="M0,-2.372L-2.739,2.372L2.739,2.372Z" stroke="#e45756" stroke-width="2" opacity="0.75"/><path aria-label="Latency: 143.3; Bandwidth: 7738.8; Kind: R-DRAM" role="graphics-symbol" aria-roledescription="point" transform="translate(17.9125,182.80266666666668)" d="M0,-2.372L-2.739,2.372L2.739,2.372Z" stroke="#e45756" stroke-width="2" opacity="0.75"/><path aria-label="Latency: 142.11; Bandwidth: 5644.2; Kind: R-DRAM" role="graphics-symbol" aria-roledescription="point" transform="translate(17.76375,187.45733333333334)" d="M0,-2.372L-2.739,2.372L2.739,2.372Z" stroke="#e45756" stroke-width="2" opacity="0.75"/><path aria-label="Latency: 143.44; Bandwidth: 3390.4; Kind: R-DRAM" role="graphics-symbol" aria-roledescription="point" transform="translate(17.93,192.4657777777778)" d="M0,-2.372L-2.739,2.372L2.739,2.372Z" stroke="#e45756" stroke-width="2" opacity="0.75"/><path aria-label="Latency: 146.74; Bandwidth: 1780; Kind: R-DRAM" role="graphics-symbol" aria-roledescription="point" transform="translate(18.3425,196.04444444444445)" d="M0,-2.372L-2.739,2.372L2.739,2.372Z" stroke="#e45756" stroke-width="2" opacity="0.75"/><path aria-label="Latency: 1537.41; Bandwidth: 14927; Kind: R-PMEM" role="graphics-symbol" aria-roledescription="point" transform="translate(192.17625,166.82888888888888)" d="M-2.739,-1.095L-2.739,1.095L-1.095,1.095L-1.095,2.739L1.095,2.739L1.095,1.095L2.739,1.095L2.739,-1.095L1.095,-1.095L1.095,-2.739L-1.095,-2.739L-1.095,-1.095Z" stroke="#72b7b2" stroke-width="2" opacity="0.75"/><path aria-label="Latency: 1251.11; Bandwidth: 21840.8; Kind: R-PMEM" role="graphics-symbol" aria-roledescription="point" transform="translate(156.38875,151.46488888888888)" d="M-2.739,-1.095L-2.739,1.095L-1.095,1.095L-1.095,2.739L1.095,2.739L1.095,1.095L2.739,1.095L2.739,-1.095L1.095,-1.095L1.095,-2.739L-1.095,-2.739L-1.095,-1.095Z" stroke="#72b7b2" stroke-width="2" opacity="0.75"/><path aria-label="Latency: 1129.48; Bandwidth: 23691.4; Kind: R-PMEM" role="graphics-symbol" aria-roledescription="point" transform="translate(141.185,147.35244444444444)" d="M-2.739,-1.095L-2.739,1.095L-1.095,1.095L-1.095,2.739L1.095,2.739L1.095,1.095L2.739,1.095L2.739,-1.095L1.095,-1.095L1.095,-2.739L-1.095,-2.739L-1.095,-1.095Z" stroke="#72b7b2" stroke-width="2" opacity="0.75"/><path aria-label="Latency: 663.22; Bandwidth: 27952.3; Kind: R-PMEM" role="graphics-symbol" aria-roledescription="point" transform="translate(82.9025,137.8837777777778)" d="M-2.739,-1.095L-2.739,1.095L-1.095,1.095L-1.095,2.739L1.095,2.739L1.095,1.095L2.739,1.095L2.739,-1.095L1.095,-1.095L1.095,-2.739L-1.095,-2.739L-1.095,-1.095Z" stroke="#72b7b2" stroke-width="2" opacity="0.75"/><path aria-label="Latency: 634.43; Bandwidth: 27887.5; Kind: R-PMEM" role="graphics-symbol" aria-roledescription="point" transform="translate(79.30375,138.02777777777777)" d="M-2.739,-1.095L-2.739,1.095L-1.095,1.095L-1.095,2.739L1.095,2.739L1.095,1.095L2.739,1.095L2.739,-1.095L1.095,-1.095L1.095,-2.739L-1.095,-2.739L-1.095,-1.095Z" stroke="#72b7b2" stroke-width="2" opacity="0.75"/><path aria-label="Latency: 575.37; Bandwidth: 26891.7; Kind: R-PMEM" role="graphics-symbol" aria-roledescription="point" transform="translate(71.92125,140.24066666666667)" d="M-2.739,-1.095L-2.739,1.095L-1.095,1.095L-1.095,2.739L1.095,2.739L1.095,1.095L2.739,1.095L2.739,-1.095L1.095,-1.095L1.095,-2.739L-1.095,-2.739L-1.095,-1.095Z" stroke="#72b7b2" stroke-width="2" opacity="0.75"/><path aria-label="Latency: 534.49; Bandwidth: 25560.9; Kind: R-PMEM" role="graphics-symbol" aria-roledescription="point" transform="translate(66.81125,143.19799999999998)" d="M-2.739,-1.095L-2.739,1.095L-1.095,1.095L-1.095,2.739L1.095,2.739L1.095,1.095L2.739,1.095L2.739,-1.095L1.095,-1.095L1.095,-2.739L-1.095,-2.739L-1.095,-1.095Z" stroke="#72b7b2" stroke-width="2" opacity="0.75"/><path aria-label="Latency: 515.04; Bandwidth: 23673.5; Kind: R-PMEM" role="graphics-symbol" aria-roledescription="point" transform="translate(64.38,147.39222222222224)" d="M-2.739,-1.095L-2.739,1.095L-1.095,1.095L-1.095,2.739L1.095,2.739L1.095,1.095L2.739,1.095L2.739,-1.095L1.095,-1.095L1.095,-2.739L-1.095,-2.739L-1.095,-1.095Z" stroke="#72b7b2" stroke-width="2" opacity="0.75"/><path aria-label="Latency: 502.29; Bandwidth: 21857.9; Kind: R-PMEM" role="graphics-symbol" aria-roledescription="point" transform="translate(62.786249999999995,151.4268888888889)" d="M-2.739,-1.095L-2.739,1.095L-1.095,1.095L-1.095,2.739L1.095,2.739L1.095,1.095L2.739,1.095L2.739,-1.095L1.095,-1.095L1.095,-2.739L-1.095,-2.739L-1.095,-1.095Z" stroke="#72b7b2" stroke-width="2" opacity="0.75"/><path aria-label="Latency: 487.12; Bandwidth: 18939.1; Kind: R-PMEM" role="graphics-symbol" aria-roledescription="point" transform="translate(60.89,157.91311111111114)" d="M-2.739,-1.095L-2.739,1.095L-1.095,1.095L-1.095,2.739L1.095,2.739L1.095,1.095L2.739,1.095L2.739,-1.095L1.095,-1.095L1.095,-2.739L-1.095,-2.739L-1.095,-1.095Z" stroke="#72b7b2" stroke-width="2" opacity="0.75"/><path aria-label="Latency: 461.12; Bandwidth: 15978; Kind: R-PMEM" role="graphics-symbol" aria-roledescription="point" transform="translate(57.64,164.49333333333334)" d="M-2.739,-1.095L-2.739,1.095L-1.095,1.095L-1.095,2.739L1.095,2.739L1.095,1.095L2.739,1.095L2.739,-1.095L1.095,-1.095L1.095,-2.739L-1.095,-2.739L-1.095,-1.095Z" stroke="#72b7b2" stroke-width="2" opacity="0.75"/><path aria-label="Latency: 441.77; Bandwidth: 13848.5; Kind: R-PMEM" role="graphics-symbol" aria-roledescription="point" transform="translate(55.22125,169.22555555555556)" d="M-2.739,-1.095L-2.739,1.095L-1.095,1.095L-1.095,2.739L1.095,2.739L1.095,1.095L2.739,1.095L2.739,-1.095L1.095,-1.095L1.095,-2.739L-1.095,-2.739L-1.095,-1.095Z" stroke="#72b7b2" stroke-width="2" opacity="0.75"/><path aria-label="Latency: 429.99; Bandwidth: 11614.8; Kind: R-PMEM" role="graphics-symbol" aria-roledescription="point" transform="translate(53.74875,174.18933333333334)" d="M-2.739,-1.095L-2.739,1.095L-1.095,1.095L-1.095,2.739L1.095,2.739L1.095,1.095L2.739,1.095L2.739,-1.095L1.095,-1.095L1.095,-2.739L-1.095,-2.739L-1.095,-1.095Z" stroke="#72b7b2" stroke-width="2" opacity="0.75"/><path aria-label="Latency: 421.01; Bandwidth: 8744.8; Kind: R-PMEM" role="graphics-symbol" aria-roledescription="point" transform="translate(52.62625,180.56711111111113)" d="M-2.739,-1.095L-2.739,1.095L-1.095,1.095L-1.095,2.739L1.095,2.739L1.095,1.095L2.739,1.095L2.739,-1.095L1.095,-1.095L1.095,-2.739L-1.095,-2.739L-1.095,-1.095Z" stroke="#72b7b2" stroke-width="2" opacity="0.75"/><path aria-label="Latency: 414.92; Bandwidth: 6692.7; Kind: R-PMEM" role="graphics-symbol" aria-roledescription="point" transform="translate(51.86500000000001,185.12733333333333)" d="M-2.739,-1.095L-2.739,1.095L-1.095,1.095L-1.095,2.739L1.095,2.739L1.095,1.095L2.739,1.095L2.739,-1.095L1.095,-1.095L1.095,-2.739L-1.095,-2.739L-1.095,-1.095Z" stroke="#72b7b2" stroke-width="2" opacity="0.75"/><path aria-label="Latency: 410.26; Bandwidth: 4961.9; Kind: R-PMEM" role="graphics-symbol" aria-roledescription="point" transform="translate(51.2825,188.97355555555555)" d="M-2.739,-1.095L-2.739,1.095L-1.095,1.095L-1.095,2.739L1.095,2.739L1.095,1.095L2.739,1.095L2.739,-1.095L1.095,-1.095L1.095,-2.739L-1.095,-2.739L-1.095,-1.095Z" stroke="#72b7b2" stroke-width="2" opacity="0.75"/><path aria-label="Latency: 407.24; Bandwidth: 2972; Kind: R-PMEM" role="graphics-symbol" aria-roledescription="point" transform="translate(50.905,193.39555555555557)" d="M-2.739,-1.095L-2.739,1.095L-1.095,1.095L-1.095,2.739L1.095,2.739L1.095,1.095L2.739,1.095L2.739,-1.095L1.095,-1.095L1.095,-2.739L-1.095,-2.739L-1.095,-1.095Z" stroke="#72b7b2" stroke-width="2" opacity="0.75"/><path aria-label="Latency: 409.76; Bandwidth: 1472.5; Kind: R-PMEM" role="graphics-symbol" aria-roledescription="point" transform="translate(51.22,196.72777777777776)" d="M-2.739,-1.095L-2.739,1.095L-1.095,1.095L-1.095,2.739L1.095,2.739L1.095,1.095L2.739,1.095L2.739,-1.095L1.095,-1.095L1.095,-2.739L-1.095,-2.739L-1.095,-1.095Z" stroke="#72b7b2" stroke-width="2" opacity="0.75"/></g><g class="mark-group role-scope layer_1_pathgroup" role="graphics-object" aria-roledescription="group mark container"><g transform="translate(0,0)"><path class="background" aria-hidden="true" d="M0,0h200v200h-200Z"/><g><g class="mark-line role-mark layer_1_marks" role="graphics-object" aria-roledescription="line mark container"><path aria-label="Latency: 89.73; Bandwidth: 6006.19999993; Kind: L-DRAM" role="graphics-symbol" aria-roledescription="line mark" d="M11.216,186.653L11.234,181.792L11.261,174.153L11.326,175.448L11.35,175.448L11.414,173.418L11.489,166.608L11.805,145.407L12.161,126.519L13.031,105.509L13.564,91.695L14.354,75.796L15.883,44.156L19.603,23.589L21.748,11.66L37.21,3.326L37.543,3.19L37.84,3.068L38.786,2.681" stroke="#4c78a8" stroke-width="2"/></g></g><path class="foreground" aria-hidden="true" d="" display="none"/></g><g transform="translate(0,0)"><path class="background" aria-hidden="true" d="M0,0h200v200h-200Z"/><g><g class="mark-line role-mark layer_1_marks" role="graphics-object" aria-roledescription="line mark container"><path aria-label="Latency: 342.83; Bandwidth: 3155.20444112; Kind: L-PMEM" role="graphics-symbol" aria-roledescription="line mark" d="M42.854,192.988L42.911,192.476L43.243,189.555L43.829,184.701L44.581,180.005L46.041,173.782L47.793,168.01L49.946,162.971L50.262,162.121L53.314,154.447L56.06,148.384L59,144.569L63.685,140.761L70.628,139.6L80.911,144.245L83.389,145.414L139.04,147.77L156.166,151.8L160.735,152.884" stroke="#f58518" stroke-width="2"/></g></g><path class="foreground" aria-hidden="true" d="" display="none"/></g><g transform="translate(0,0)"><path class="background" aria-hidden="true" d="M0,0h200v200h-200Z"/><g><g class="mark-line role-mark layer_1_marks" role="graphics-object" aria-roledescription="line mark container"><path aria-label="Latency: 142.11; Bandwidth: 5644.20000001; Kind: R-DRAM" role="graphics-symbol" aria-roledescription="line mark" d="M17.764,187.457L17.913,182.803L17.93,182.255L18.164,167.745L18.343,162.861L18.494,157.081L18.704,149.969L19.544,135.178L20.613,120.102L21.356,110.307L22.495,99.55L24.873,83.044L31.27,78.111L34.334,75.815L56.239,76.285L58.131,76.302L68.783,76.394L74.444,76.443" stroke="#e45756" stroke-width="2"/></g></g><path class="foreground" aria-hidden="true" d="" display="none"/></g><g transform="translate(0,0)"><path class="background" aria-hidden="true" d="M0,0h200v200h-200Z"/><g><g class="mark-line role-mark layer_1_marks" role="graphics-object" aria-roledescription="line mark container"><path aria-label="Latency: 407.24; Bandwidth: 3132.56210487; Kind: R-PMEM" role="graphics-symbol" aria-roledescription="line mark" d="M50.905,193.039L51.22,190.316L51.283,189.781L51.865,185.187L52.626,180.608L53.749,175.145L55.221,170.064L57.64,164.515L60.89,156.734L62.786,152.004L64.38,148.246L66.811,143.663L71.921,140.528L79.304,138.443L82.903,137.586L141.185,147.093L156.389,152.68L192.176,166.603" stroke="#72b7b2" stroke-width="2"/></g></g><path class="foreground" aria-hidden="true" d="" display="none"/></g></g><g class="mark-group role-legend" role="graphics-symbol" aria-roledescription="legend" aria-label="Symbol legend for stroke color with 4 values: L-DRAM, L-PMEM, R-DRAM, R-PMEM"><g transform="translate(0,-17)"><path class="background" aria-hidden="true" d="M0,0h222v12h-222Z" pointer-events="none"/><g><g class="mark-group role-legend-entry"><g transform="translate(0,0)"><path class="background" aria-hidden="true" d="M0,0h0v0h0Z" pointer-events="none"/><g><g class="mark-group role-scope" role="graphics-object" aria-roledescription="group mark container"><g transform="translate(0,0.25)"><path class="background" aria-hidden="true" d="M0,0h53.3349609375v11.5h-53.3349609375Z" pointer-events="none" opacity="1"/><g><g class="mark-symbol role-legend-symbol" pointer-events="none"><path transform="translate(5.5,5.5)" d="M5,0A5,5,0,1,1,-5,0A5,5,0,1,1,5,0" stroke="#4c78a8" stroke-width="1" opacity="0.75"/></g><g class="mark-text role-legend-label" pointer-events="none"><text text-anchor="start" transform="translate(15,8.5)" font-family="sans-serif" font-size="10px" fill="#000" opacity="1">L-DRAM</text></g></g><path class="foreground" aria-hidden="true" d="" pointer-events="none" display="none"/></g><g transform="translate(55,0.25)"><path class="background" aria-hidden="true" d="M0,0h53.8916015625v11.5h-53.8916015625Z" pointer-events="none" opacity="1"/><g><g class="mark-symbol role-legend-symbol" pointer-events="none"><path transform="translate(5.5,5.5)" d="M5,0A5,5,0,1,1,-5,0A5,5,0,1,1,5,0" stroke="#f58518" stroke-width="1" opacity="0.75"/></g><g class="mark-text role-legend-label" pointer-events="none"><text text-anchor="start" transform="translate(15,8.5)" font-family="sans-serif" font-size="10px" fill="#000" opacity="1">L-PMEM</text></g></g><path class="foreground" aria-hidden="true" d="" pointer-events="none" display="none"/></g><g transform="translate(110,0.25)"><path class="background" aria-hidden="true" d="M0,0h54.9951171875v11.5h-54.9951171875Z" pointer-events="none" opacity="1"/><g><g class="mark-symbol role-legend-symbol" pointer-events="none"><path transform="translate(5.5,5.5)" d="M5,0A5,5,0,1,1,-5,0A5,5,0,1,1,5,0" stroke="#e45756" stroke-width="1" opacity="0.75"/></g><g class="mark-text role-legend-label" pointer-events="none"><text text-anchor="start" transform="translate(15,8.5)" font-family="sans-serif" font-size="10px" fill="#000" opacity="1">R-DRAM</text></g></g><path class="foreground" aria-hidden="true" d="" pointer-events="none" display="none"/></g><g transform="translate(166,0.25)"><path class="background" aria-hidden="true" d="M0,0h55.5517578125v11.5h-55.5517578125Z" pointer-events="none" opacity="1"/><g><g class="mark-symbol role-legend-symbol" pointer-events="none"><path transform="translate(5.5,5.5)" d="M5,0A5,5,0,1,1,-5,0A5,5,0,1,1,5,0" stroke="#72b7b2" stroke-width="1" opacity="0.75"/></g><g class="mark-text role-legend-label" pointer-events="none"><text text-anchor="start" transform="translate(15,8.5)" font-family="sans-serif" font-size="10px" fill="#000" opacity="1">R-PMEM</text></g></g><path class="foreground" aria-hidden="true" d="" pointer-events="none" display="none"/></g></g></g><path class="foreground" aria-hidden="true" d="" pointer-events="none" display="none"/></g></g></g><path class="foreground" aria-hidden="true" d="" pointer-events="none" display="none"/></g></g></g><path class="foreground" aria-hidden="true" d="" display="none"/></g></g></g></svg>